<svg width="40" height="40" viewBox="0 0 40 40" fill="none" xmlns="http://www.w3.org/2000/svg">
<rect x="0.5" y="0.5" width="39" height="39" fill="#050402"/>
<path d="M25.3196 16.9108C25.2294 16.1761 25.0041 15.5993 24.6041 15.0883C24.0847 14.4304 23.421 14.0364 22.4383 13.8027C21.7979 13.647 21.5391 13.6648 21.3075 13.8769C21.0917 14.0757 21.0496 14.474 21.2145 14.732C21.3304 14.9192 21.4642 14.9863 21.8362 15.0595C22.3317 15.1509 22.674 15.2695 22.9855 15.448C23.6465 15.8307 23.9543 16.4295 23.9873 17.3989C24.0027 17.854 24.0419 17.994 24.2005 18.1554C24.4944 18.4505 25.0175 18.3931 25.2394 18.04C25.3208 17.9069 25.3332 17.8489 25.3418 17.5399C25.3475 17.3485 25.3393 17.0637 25.3196 16.9108Z" fill="#BB8C5F"/>
<path d="M27.9087 17.7393C27.7782 15.4886 26.9 13.6777 25.3284 12.4037C24.4429 11.6878 23.3726 11.1955 22.1993 10.9561C21.7696 10.8705 20.9783 10.8011 20.8425 10.8408C20.7144 10.8775 20.5333 11.0166 20.4525 11.1423C20.3671 11.2787 20.3479 11.5832 20.4207 11.7593C20.5383 12.0537 20.757 12.1577 21.3696 12.2114C22.314 12.2942 23.2881 12.6269 24.0241 13.1193C24.8643 13.6799 25.5322 14.4468 25.9643 15.3479C26.3377 16.1222 26.5673 17.238 26.5609 18.2371C26.5588 18.5985 26.6145 18.8026 26.7594 18.9518C26.9782 19.1812 27.2972 19.2314 27.5787 19.079C27.8907 18.9145 27.9636 18.6258 27.9087 17.7393Z" fill="#BB8C5F"/>
<path d="M30.7738 26.4066C30.7299 26.278 30.6274 26.0795 30.5542 25.9656C30.093 25.2674 27.615 23.3233 26.3778 22.6875C25.6714 22.3237 25.1479 22.2025 24.7599 22.3163C24.3427 22.434 24.123 22.6287 23.4239 23.4997C23.1421 23.8488 22.8529 24.1759 22.7761 24.2273C22.5857 24.3596 22.2124 24.4663 21.9488 24.4663C21.3376 24.4625 20.2285 24.0656 19.3756 23.5438C18.7131 23.1396 17.864 22.4156 17.2124 21.699C16.4437 20.8574 15.9204 20.115 15.5067 19.2771C14.9723 18.2004 14.8369 17.5425 15.0601 17.0611C15.1151 16.9398 15.1883 16.8112 15.2212 16.7707C15.2541 16.7341 15.5982 16.451 15.9789 16.1423C16.7256 15.547 16.8464 15.411 16.9855 15.0031C17.1612 14.4849 17.1136 13.9557 16.8427 13.4229C16.6341 13.0186 16.0887 12.1366 15.6934 11.567C15.17 10.8173 13.8669 9.21502 13.607 8.99813C13.1385 8.61597 12.5382 8.54978 11.8757 8.80708C11.1766 9.07903 9.86619 10.1374 9.30615 10.8761C8.80103 11.5449 8.60709 12.019 8.57778 12.6438C8.55218 13.1582 8.59609 13.3714 8.86695 14.0292C10.9863 19.1889 14.1487 23.3086 18.4935 26.5794C20.7629 28.2882 23.1165 29.5892 25.5579 30.4786C26.9817 30.9967 27.6003 31.0224 28.3287 30.5962C28.6362 30.4124 29.3975 29.6296 29.8221 29.06C30.5249 28.1118 30.7848 27.6745 30.858 27.3254C30.9092 27.0865 30.869 26.6713 30.7738 26.4066Z" fill="#BB8C5F"/>
<path d="M30.5446 18.2554C30.4977 16.9823 30.2839 15.938 29.838 14.7737C29.3978 13.6284 28.9523 12.8811 28.111 11.8702C27.3155 10.9225 26.6977 10.3813 25.7178 9.77892C24.3507 8.93963 22.687 8.38422 20.8225 8.15064C20.1866 8.06901 20.0428 8.07484 19.8477 8.20532C19.4697 8.45252 19.4747 9.06907 19.854 9.31255C19.9795 9.39001 20.0909 9.41822 20.5995 9.48496C21.3803 9.59034 21.8823 9.68965 22.478 9.8526C24.8141 10.4928 26.6105 11.8013 27.8115 13.7438C28.8166 15.3629 29.2338 16.9821 29.1745 19.0501C29.1539 19.7492 29.1689 19.8723 29.2755 20.0403C29.4797 20.3533 30.018 20.4153 30.2942 20.1555C30.4661 19.9971 30.4985 19.8783 30.5323 19.2799C30.5485 18.9677 30.552 18.507 30.5446 18.2554Z" fill="#BB8C5F"/>
<rect x="0.5" y="0.5" width="39" height="39" stroke="#BB8C5F"/>
</svg>
